<?xml version="1.0" standalone="no"?>
<!DOCTYPE svg PUBLIC "-//W3C//DTD SVG 20010904//EN"
 "http://www.w3.org/TR/2001/REC-SVG-20010904/DTD/svg10.dtd">
<svg version="1.0" xmlns="http://www.w3.org/2000/svg"
 width="584.000000pt" height="584.000000pt" viewBox="0 0 584.000000 584.000000"
 preserveAspectRatio="xMidYMid meet">
<metadata>
Created by potrace 1.11, written by Peter Selinger 2001-2013
</metadata>
<g transform="translate(0.000000,584.000000) scale(0.100000,-0.100000)"
fill="#000000" stroke="none">
<path d="M2677 5710 c-509 -49 -987 -227 -1392 -518 -135 -97 -239 -188 -382
-335 -887 -914 -1038 -2326 -366 -3416 147 -238 374 -499 593 -683 218 -184
557 -379 830 -478 153 -56 384 -114 561 -141 208 -33 590 -33 798 0 177 27
408 85 561 141 253 92 572 271 785 440 174 138 395 371 527 555 705 981 705
2299 0 3280 -167 233 -413 478 -643 642 -363 257 -783 427 -1225 493 -157 24
-501 34 -647 20z m-1167 -965 c626 -113 1151 -540 1396 -1134 l23 -56 12 35
c27 78 153 311 216 400 88 124 319 355 443 443 52 37 163 100 245 141 273 136
525 196 818 196 l119 0 -6 -137 c-17 -323 -77 -561 -207 -815 -193 -375 -519
-682 -903 -849 -53 -24 -93 -46 -89 -50 5 -4 42 -21 84 -38 92 -38 228 -115
329 -186 451 -318 741 -832 779 -1381 4 -71 6 -157 3 -191 l-4 -63 -114 0
c-410 0 -820 146 -1149 411 -102 83 -268 259 -347 370 -64 88 -190 322 -217
399 l-12 35 -41 -95 c-95 -222 -221 -405 -403 -585 -225 -223 -468 -369 -768
-459 -162 -49 -279 -67 -473 -73 l-171 -6 -6 68 c-8 88 8 293 34 420 98 480
379 902 787 1177 79 53 262 151 341 182 24 9 42 19 40 21 -2 2 -47 22 -99 45
-547 241 -956 751 -1070 1336 -23 117 -47 420 -36 449 6 16 21 17 179 12 94
-3 215 -13 267 -22z"/>
<path d="M1297 4494 c17 -174 77 -374 162 -549 192 -390 532 -686 949 -825
107 -36 316 -80 379 -80 25 0 25 1 18 63 -68 618 -511 1164 -1106 1361 -121
40 -229 64 -333 73 l-74 6 5 -49z"/>
<path d="M4445 4533 c-11 -2 -56 -11 -100 -19 -472 -91 -900 -416 -1124 -853
-85 -166 -152 -387 -167 -551 l-7 -71 54 6 c299 37 608 164 834 344 127 101
281 276 373 422 119 188 213 462 235 682 l5 47 -42 -1 c-22 -1 -50 -3 -61 -6z"/>
<path d="M2720 2799 c-364 -47 -691 -208 -950 -468 -275 -276 -421 -582 -475
-995 l-7 -49 76 6 c166 14 370 74 540 158 444 220 771 638 874 1120 30 136 38
239 21 238 -8 -1 -43 -5 -79 -10z"/>
<path d="M3051 2728 c20 -178 71 -351 159 -533 160 -329 434 -601 766 -756
155 -73 362 -132 512 -146 l64 -6 -7 49 c-54 407 -193 704 -460 983 -146 152
-362 296 -564 376 -120 47 -305 94 -402 102 l-75 6 7 -75z"/>
</g>
</svg>
