<?xml version="1.0" encoding="utf-8"?>
<!-- Generator: Adobe Illustrator 23.1.1, SVG Export Plug-In . SVG Version: 6.00 Build 0)  -->
<svg version="1.1" id="Ebene_1" xmlns="http://www.w3.org/2000/svg" xmlns:xlink="http://www.w3.org/1999/xlink" x="0px" y="0px"
	 viewBox="0 0 360 760" style="enable-background:new 0 0 360 760;" xml:space="preserve">
<style type="text/css">
	.st0{fill:#F7F8FA;}
	.st1{fill:#F97272;}
	.st2{fill:#E4EBF3;}
</style>
<rect class="st0" width="360" height="760"/>
<path class="st1" d="M-194,490"/>
<path class="st2" d="M54.5,239.5c13.84-52.88-7.12-92.72,25-147c19.83-33.5,38.63-36.6,42-59c1.42-9.44-0.17-20.52-7.23-33.5H0
	v329.21C23.95,305.47,45.5,273.89,54.5,239.5z"/>
<path class="st2" d="M69.04,760c-8.26-6.5-17.22-13.51-27.04-21c-15.71-11.99-29.63-22.69-42-32.22V760H69.04z"/>
<path class="st2" d="M256,704c-22.75,17.06-34.11,37.39-42.71,56H360v-88.13C323.26,671.56,284.06,682.97,256,704z"/>
<path class="st2" d="M306,131c10.97,3.01,31.17,8.53,54,9.43V0H143.84C167.62,50.14,232.92,110.98,306,131z"/>
<path class="st2" d="M229,466c0.17,15.33,1.59,70.13,41,113c23.66,25.74,56.15,41.87,90,49.06V235.57
	C291.63,285.78,227.99,376.64,229,466z"/>
<path class="st2" d="M181,708c38.85-10.76,78.59-43.29,75-70c-2.24-16.71-20.02-20.49-42-41c-35.82-33.43-45.75-76.72-52-104
	c-21.72-94.72,25.55-174.48,32-185c47.75-77.89,111.01-80.6,109-118c-2.83-52.76-132.11-110.57-180-73
	c-42.1,33.02,17.91,108.98-24,185c-21.59,39.16-59.07,58.11-99,70.96v292.67c20.28,8.49,43.44,16.66,71,26.38
	C138.62,715.84,164.47,712.58,181,708z"/>
</svg>
