<?xml version="1.0" encoding="utf-8"?>
<!-- Generator: Adobe Illustrator 23.1.1, SVG Export Plug-In . SVG Version: 6.00 Build 0)  -->
<svg version="1.1" id="Ebene_1" xmlns="http://www.w3.org/2000/svg" xmlns:xlink="http://www.w3.org/1999/xlink" x="0px" y="0px"
	 viewBox="0 0 183 177" style="enable-background:new 0 0 183 177;" xml:space="preserve">
<style type="text/css">
	.st0{fill:#1F3A60;}
</style>
<g>
	<g id="Gruppe_25" transform="translate(-326.531 -288.962)">
		<g id="Gruppe_12" transform="translate(407.068 335.217)">
			<g id="Gruppe_11">
				<path id="Pfad_9" class="st0" d="M10.53,8.52c0,0.06,0,0.13,0,0.2C10.53,8.65,10.53,8.58,10.53,8.52c-0.07,0-0.14,0-0.2,0
					C10.39,8.52,10.46,8.52,10.53,8.52L10.53,8.52z"/>
			</g>
		</g>
		<g id="Gruppe_14" transform="translate(407.269 335.221)">
			<g id="Gruppe_13">
				<path id="Pfad_10" class="st0" d="M10.32,8.51c0,0.06,0,0.13,0,0.2C10.32,8.65,10.32,8.58,10.32,8.51L10.32,8.51z"/>
			</g>
		</g>
		<g id="Gruppe_16" transform="translate(360.606 288.971)">
			<g id="Gruppe_15">
				<path id="Pfad_11" class="st0" d="M56.78,57.61C31.2,57.63,10.43,36.96,10.33,11.38l-0.01-2.72l2.71-0.15
					c0.11-0.01,0.24-0.01,0.35-0.01C38.96,8.5,59.73,29.17,59.83,54.74l0.01,2.72l-2.72,0.14C57.02,57.61,56.89,57.61,56.78,57.61z
					 M16.16,14.31C17.71,34.48,33.83,50.44,54,51.81C52.45,31.65,36.33,15.68,16.16,14.31z"/>
			</g>
		</g>
		<g id="Gruppe_18" transform="translate(360.613 332.364)">
			<g id="Gruppe_17">
				<path id="Pfad_12" class="st0" d="M13.38,58.03c-0.12,0-0.24,0-0.35-0.01l-2.54-0.14l-0.16-2.53c-0.01-0.12-0.01-0.26-0.01-0.38
					C10.31,29.32,31.09,8.52,56.74,8.51c0.01,0,0.02,0,0.04,0c0.12,0,0.26,0,0.38,0.01l2.51,0.16l0.16,2.51
					c0.01,0.12,0.01,0.26,0.01,0.38c0.01,25.64-20.77,46.44-46.41,46.45C13.4,58.03,13.39,58.03,13.38,58.03z M54.03,14.31
					c-20.34,1.36-36.55,17.56-37.91,37.9C36.46,50.86,52.67,34.66,54.03,14.31z M56.96,11.57L56.96,11.57z"/>
			</g>
		</g>
		<g id="Gruppe_20" transform="translate(407.068 335.217)">
			<g id="Gruppe_19">
				<path id="Pfad_13" class="st0" d="M10.52,8.51L10.52,8.51c-0.07,0-0.14,0-0.2,0C10.39,8.51,10.46,8.51,10.52,8.51z"/>
			</g>
		</g>
		<g id="Gruppe_22" transform="translate(404.409 288.962)">
			<g id="Gruppe_21">
				<path id="Pfad_14" class="st0" d="M10.32,57.63l0.01-2.88C10.44,29.27,31.07,8.63,56.56,8.52l2.88-0.01l-0.01,2.88
					C59.31,36.88,38.68,57.51,13.2,57.62L10.32,57.63z M53.59,14.36C33.6,15.92,17.72,31.8,16.16,51.78
					C36.15,50.22,52.03,34.34,53.59,14.36z"/>
			</g>
		</g>
		<g id="Gruppe_24" transform="translate(404.417 332.357)">
			<g id="Gruppe_23">
				<path id="Pfad_15" class="st0" d="M59.24,58.04l-2.69-0.01c-25.57-0.11-46.24-20.88-46.24-46.45c0-0.12,0-0.26,0.01-0.38
					l0.17-2.69l2.69,0.01C38.76,8.64,59.43,29.4,59.42,54.97c0,0.13,0,0.26-0.01,0.38L59.24,58.04z M16.12,14.36
					c1.37,20.17,17.33,36.28,37.49,37.84C52.25,32.03,36.28,15.92,16.12,14.36z"/>
			</g>
		</g>
	</g>
	<g id="Gruppe_26" transform="translate(-443.617 -185.037)">
		<path id="Pfad_16" class="st0" d="M474.02,327.63c-4.64,4.52-12.03,4.52-16.67,0c-4.61-4.56-4.65-11.99-0.09-16.6
			c2.22-2.25,5.26-3.5,8.42-3.48c3.13-0.06,6.14,1.17,8.34,3.39C478.6,315.56,478.6,323.01,474.02,327.63z M465.67,327.23
			c4.29-0.04,7.74-3.56,7.69-7.86c-0.04-4.29-3.56-7.74-7.86-7.69c-4.29,0.04-7.74,3.56-7.69,7.86c0.02,2.03,0.84,3.98,2.28,5.42
			C461.56,326.44,463.58,327.27,465.67,327.23L465.67,327.23z"/>
		<path id="Pfad_17" class="st0" d="M494.36,307.55c3.03-0.04,5.93,1.2,7.99,3.41c4.4,4.67,4.4,11.97,0,16.65
			c-2.06,2.22-4.96,3.46-7.99,3.41c-3.4,0.15-6.62-1.54-8.43-4.42v12.76h-3.88v-31.24h3.88v3.84
			C487.74,309.08,490.96,307.4,494.36,307.55z M493.87,327.27c2.11,0.05,4.15-0.78,5.62-2.3c3.03-3.19,3.03-8.19,0-11.38
			c-3.14-3.06-8.15-3.06-11.29,0c-3.03,3.19-3.03,8.19,0,11.38C489.69,326.49,491.75,327.33,493.87,327.27z"/>
		<path id="Pfad_18" class="st0" d="M513.02,321.07c0.29,1.84,1.27,3.5,2.74,4.64c1.54,1.13,3.42,1.71,5.33,1.65
			c2.95,0,5.09-1.09,6.43-3.26l3.3,1.87c-2.17,3.36-5.45,5.04-9.82,5.04c-3.21,0.13-6.34-1.08-8.63-3.33
			c-2.22-2.23-3.42-5.27-3.33-8.41c-0.09-3.12,1.08-6.15,3.26-8.39c2.22-2.25,5.28-3.46,8.43-3.35c3.05-0.1,5.99,1.17,8.01,3.46
			c2.06,2.28,3.17,5.25,3.1,8.32c0,0.58-0.05,1.16-0.13,1.74H513.02z M520.74,311.21c-3.87-0.19-7.23,2.63-7.72,6.47h14.9
			c-0.2-1.86-1.09-3.59-2.5-4.82C524.1,311.77,522.44,311.18,520.74,311.21L520.74,311.21z"/>
		<path id="Pfad_19" class="st0" d="M547.42,307.55c2.35-0.1,4.64,0.8,6.29,2.48c1.65,1.84,2.5,4.25,2.37,6.72v13.7h-3.88v-13.48
			c0.1-1.55-0.43-3.07-1.47-4.22c-1.09-1.04-2.56-1.58-4.06-1.49c-1.75-0.07-3.44,0.58-4.69,1.81c-1.19,1.2-1.78,3.06-1.78,5.55
			v11.83h-3.88v-22.31h3.88v3.21C541.72,308.84,544.5,307.38,547.42,307.55z"/>
		<path id="Pfad_20" class="st0" d="M576.79,308.13h4.2l-8.93,22.31h-4.55l-8.92-22.31h4.19l7.01,18.11L576.79,308.13z"/>
		<path id="Pfad_21" class="st0" d="M586.25,304.07c-0.7,0.02-1.38-0.26-1.88-0.76c-0.49-0.48-0.77-1.14-0.76-1.83
			c-0.01-0.69,0.27-1.36,0.76-1.85c0.49-0.51,1.17-0.8,1.88-0.78c0.69-0.01,1.36,0.27,1.83,0.78c0.49,0.49,0.77,1.16,0.76,1.85
			C588.84,302.91,587.68,304.07,586.25,304.07L586.25,304.07z M584.28,330.44v-22.31h3.88v22.31H584.28z"/>
		<path id="Pfad_22" class="st0" d="M612.93,327.63c-4.64,4.52-12.03,4.52-16.67,0c-4.61-4.56-4.65-11.99-0.09-16.6
			c2.22-2.25,5.26-3.5,8.42-3.48c3.13-0.06,6.14,1.17,8.34,3.39C617.52,315.56,617.52,323.01,612.93,327.63L612.93,327.63z
			 M604.59,327.23c4.29-0.04,7.74-3.56,7.7-7.86s-3.56-7.74-7.86-7.7c-4.29,0.04-7.74,3.56-7.7,7.86c0.02,2.03,0.84,3.98,2.28,5.42
			C600.48,326.44,602.5,327.27,604.59,327.23L604.59,327.23z"/>
	</g>
	<g id="Gruppe_27" transform="translate(-445.409 -188.037)">
		<path id="Pfad_23" class="st0" d="M458.07,350.31c0.1,0.62,0.43,1.19,0.93,1.58c0.52,0.38,1.16,0.58,1.81,0.56
			c0.88,0.06,1.71-0.36,2.18-1.11l1.12,0.64c-0.72,1.13-1.99,1.79-3.33,1.71c-1.09,0.04-2.15-0.36-2.93-1.13
			c-0.75-0.76-1.16-1.79-1.13-2.85c-0.03-1.06,0.37-2.09,1.11-2.85c0.75-0.76,1.79-1.18,2.86-1.14c1.04-0.03,2.03,0.4,2.72,1.17
			c0.7,0.77,1.07,1.78,1.05,2.82c0,0.2-0.01,0.39-0.04,0.59L458.07,350.31z M460.69,346.96c-1.31-0.07-2.46,0.89-2.62,2.2h5.06
			c-0.07-0.63-0.37-1.22-0.85-1.64C461.84,347.16,461.27,346.95,460.69,346.96L460.69,346.96z"/>
		<path id="Pfad_24" class="st0" d="M470.97,345.92h1.42l-3.03,7.57h-1.54l-3.03-7.57h1.42l2.38,6.15L470.97,345.92z"/>
		<path id="Pfad_25" class="st0" d="M474.14,350.31c0.1,0.62,0.43,1.19,0.93,1.58c0.52,0.38,1.16,0.58,1.81,0.56
			c0.88,0.06,1.71-0.36,2.18-1.11l1.12,0.64c-0.72,1.13-1.99,1.79-3.33,1.71c-1.09,0.04-2.15-0.36-2.93-1.13
			c-0.75-0.76-1.16-1.79-1.13-2.85c-0.03-1.06,0.36-2.09,1.1-2.85c0.75-0.76,1.79-1.18,2.86-1.14c1.04-0.03,2.03,0.4,2.72,1.17
			c0.7,0.77,1.07,1.78,1.05,2.82c0,0.2-0.02,0.39-0.05,0.59L474.14,350.31z M476.76,346.96c-1.31-0.06-2.46,0.89-2.62,2.2h5.06
			c-0.07-0.63-0.37-1.22-0.85-1.64C477.9,347.16,477.34,346.95,476.76,346.96L476.76,346.96z"/>
		<path id="Pfad_26" class="st0" d="M483.36,347.19c0.41-0.92,1.36-1.49,2.36-1.41v1.38c-0.6-0.04-1.2,0.14-1.67,0.52
			c-0.5,0.46-0.76,1.12-0.7,1.8v4.01h-1.32v-7.57h1.32L483.36,347.19z"/>
		<path id="Pfad_27" class="st0" d="M492.46,345.92h1.41l-3.09,8.04c-0.26,0.77-0.73,1.45-1.36,1.96c-0.57,0.45-1.29,0.66-2.01,0.6
			v-1.23c0.92,0.07,1.6-0.44,2.04-1.55l0.14-0.28l-3.3-7.54h1.41l2.52,5.8L492.46,345.92z"/>
		<path id="Pfad_28" class="st0" d="M502.88,347.19h-2.01v4.1c-0.03,0.28,0.05,0.57,0.22,0.8c0.18,0.17,0.42,0.26,0.67,0.24
			c0.3,0.01,0.68,0,1.12-0.02v1.18c-0.85,0.19-1.74,0.09-2.53-0.28c-0.59-0.45-0.89-1.18-0.8-1.92v-4.1h-1.5v-1.27h1.5v-1.73
			l1.32-0.39v2.12h2.01L502.88,347.19z"/>
		<path id="Pfad_29" class="st0" d="M510.33,345.92h1.32v7.57h-1.32v-1.3c-0.61,0.98-1.71,1.55-2.86,1.5
			c-1.03,0.01-2.01-0.41-2.71-1.16c-1.49-1.59-1.49-4.06,0-5.65c0.7-0.75,1.68-1.17,2.71-1.16c1.15-0.05,2.25,0.52,2.86,1.5V345.92z
			 M507.63,352.42c0.72,0.02,1.42-0.26,1.92-0.78c1.03-1.08,1.03-2.78,0-3.86c-1.07-1.04-2.77-1.04-3.83,0
			c-1.03,1.08-1.03,2.78,0,3.86C506.22,352.15,506.91,352.43,507.63,352.42L507.63,352.42z"/>
		<path id="Pfad_30" class="st0" d="M514.76,347.94c0.01,0.3,0.18,0.56,0.45,0.69c0.33,0.19,0.69,0.34,1.06,0.44l1.24,0.36
			c0.41,0.12,0.78,0.36,1.06,0.69c0.3,0.36,0.45,0.83,0.43,1.3c0.02,0.65-0.28,1.26-0.8,1.65c-0.59,0.43-1.31,0.65-2.04,0.62
			c-0.66,0.02-1.32-0.15-1.89-0.48c-0.5-0.3-0.9-0.75-1.12-1.29l1.14-0.65c0.12,0.36,0.36,0.67,0.68,0.86
			c0.36,0.22,0.78,0.33,1.2,0.32c0.37,0.01,0.75-0.07,1.08-0.25c0.28-0.16,0.44-0.46,0.42-0.78c-0.01-0.3-0.17-0.57-0.44-0.7
			c-0.33-0.19-0.69-0.34-1.06-0.45l-1.24-0.37c-0.41-0.12-0.78-0.35-1.06-0.67c-0.3-0.34-0.46-0.79-0.44-1.24
			c-0.01-0.63,0.27-1.23,0.77-1.62c0.54-0.44,1.22-0.66,1.91-0.64c0.58-0.01,1.14,0.13,1.64,0.42c0.47,0.27,0.85,0.67,1.08,1.16
			l-1.11,0.62c-0.27-0.64-0.93-1.04-1.62-0.97c-0.34-0.01-0.67,0.08-0.95,0.26C514.9,347.37,514.75,347.64,514.76,347.94z"/>
		<path id="Pfad_31" class="st0" d="M526.89,353.49h-1.64l-3.45-3.58v3.58h-1.32v-10.6h1.32v6.36l3.27-3.33h1.7l-3.62,3.66
			L526.89,353.49z"/>
		<path id="Pfad_32" class="st0" d="M532.57,344.54c-0.24,0.01-0.47-0.09-0.64-0.26c-0.17-0.16-0.26-0.39-0.26-0.62
			c0-0.24,0.09-0.46,0.26-0.63c0.17-0.17,0.4-0.27,0.64-0.27c0.23,0,0.46,0.09,0.62,0.27c0.17,0.17,0.26,0.39,0.26,0.63
			C533.45,344.14,533.05,344.54,532.57,344.54z M531.9,353.49v-7.57h1.31v7.57H531.9z"/>
		<path id="Pfad_33" class="st0" d="M539,345.72c0.8-0.04,1.57,0.27,2.13,0.84c0.56,0.62,0.85,1.44,0.8,2.28v4.65h-1.32v-4.58
			c0.03-0.52-0.15-1.04-0.5-1.43c-0.37-0.35-0.87-0.54-1.38-0.51c-0.59-0.03-1.17,0.2-1.59,0.61c-0.44,0.52-0.66,1.2-0.61,1.88v4.01
			h-1.32v-7.57h1.32v1.1C537.06,346.16,538.01,345.66,539,345.72z"/>
		<path id="Pfad_34" class="st0" d="M553.95,352.53c-1.57,1.53-4.08,1.53-5.66,0c-1.56-1.55-1.58-4.07-0.03-5.63
			c0.75-0.76,1.78-1.19,2.85-1.18c1.06-0.02,2.08,0.4,2.83,1.15C555.5,348.44,555.5,350.96,553.95,352.53L553.95,352.53z
			 M551.12,352.4c1.46-0.02,2.62-1.21,2.61-2.67c-0.02-1.46-1.21-2.62-2.67-2.61s-2.62,1.21-2.61,2.67
			c0.01,0.69,0.28,1.35,0.77,1.84C549.72,352.13,550.41,352.41,551.12,352.4L551.12,352.4z"/>
		<path id="Pfad_35" class="st0" d="M560.44,345.72c0.8-0.04,1.58,0.27,2.14,0.84c0.56,0.62,0.85,1.44,0.8,2.28v4.65h-1.32v-4.58
			c0.03-0.52-0.15-1.04-0.5-1.43c-0.37-0.35-0.87-0.54-1.38-0.51c-0.59-0.03-1.17,0.2-1.59,0.61c-0.44,0.52-0.66,1.2-0.6,1.88v4.01
			h-1.32v-7.57h1.32v1.1C558.51,346.16,559.45,345.66,560.44,345.72z"/>
		<path id="Pfad_36" class="st0" d="M566.14,350.31c0.1,0.62,0.43,1.19,0.93,1.58c0.52,0.38,1.16,0.58,1.81,0.56
			c0.88,0.06,1.71-0.36,2.18-1.11l1.12,0.64c-0.72,1.13-1.99,1.79-3.33,1.71c-1.09,0.04-2.15-0.36-2.93-1.13
			c-0.75-0.76-1.16-1.79-1.13-2.85c-0.03-1.06,0.36-2.09,1.1-2.85c0.75-0.76,1.79-1.18,2.86-1.14c1.04-0.03,2.03,0.4,2.72,1.17
			c0.7,0.77,1.07,1.78,1.05,2.82c0,0.2-0.02,0.39-0.04,0.59L566.14,350.31z M568.76,346.96c-1.31-0.06-2.46,0.89-2.62,2.2h5.06
			c-0.07-0.63-0.37-1.22-0.85-1.64C569.9,347.16,569.34,346.95,568.76,346.96L568.76,346.96z"/>
		<path id="Pfad_37" class="st0" d="M582,345.72c1.03-0.01,2.01,0.41,2.71,1.16c1.49,1.59,1.49,4.06,0,5.65
			c-0.7,0.75-1.68,1.17-2.71,1.16c-1.15,0.05-2.25-0.52-2.86-1.5v4.33h-1.32v-10.6h1.32v1.3C579.76,346.24,580.85,345.67,582,345.72
			z M581.84,352.41c0.72,0.02,1.41-0.27,1.91-0.78c1.03-1.08,1.03-2.78,0-3.86c-1.07-1.04-2.77-1.04-3.83,0
			c-1.03,1.08-1.03,2.78,0,3.86C580.42,352.15,581.12,352.43,581.84,352.41L581.84,352.41z"/>
		<path id="Pfad_38" class="st0" d="M587.41,353.49v-11.05h1.32v11.05L587.41,353.49z"/>
		<path id="Pfad_39" class="st0" d="M597.01,345.92h1.32v7.57h-1.32v-1.3c-0.61,0.98-1.71,1.55-2.86,1.5
			c-1.03,0.01-2.01-0.41-2.71-1.16c-1.49-1.59-1.49-4.06,0-5.65c0.7-0.75,1.68-1.17,2.71-1.16c1.15-0.05,2.25,0.52,2.86,1.5V345.92z
			 M594.32,352.41c0.72,0.02,1.42-0.26,1.92-0.78c1.03-1.08,1.03-2.78,0-3.86c-1.07-1.04-2.77-1.04-3.83,0
			c-1.03,1.08-1.03,2.78,0,3.86C592.91,352.14,593.6,352.43,594.32,352.41z"/>
		<path id="Pfad_40" class="st0" d="M603.88,353.68c-2.2-0.01-3.98-1.8-3.97-4c0.01-2.2,1.8-3.98,4-3.97c0.7,0,1.38,0.19,1.99,0.54
			c0.58,0.34,1.04,0.84,1.33,1.45l-1.1,0.64c-0.19-0.4-0.5-0.74-0.89-0.97c-1.05-0.61-2.38-0.44-3.26,0.41
			c-1.02,1.07-1.02,2.76,0,3.83c0.5,0.51,1.19,0.79,1.9,0.77c0.48,0.01,0.95-0.12,1.36-0.36c0.39-0.23,0.71-0.56,0.92-0.96
			l1.12,0.65c-0.32,0.6-0.81,1.09-1.39,1.43C605.29,353.51,604.59,353.69,603.88,353.68z"/>
		<path id="Pfad_41" class="st0" d="M609.42,350.31c0.1,0.62,0.43,1.19,0.93,1.58c0.52,0.38,1.16,0.58,1.81,0.56
			c0.88,0.06,1.71-0.36,2.18-1.11l1.12,0.64c-0.72,1.13-1.99,1.79-3.33,1.71c-1.09,0.04-2.15-0.36-2.93-1.13
			c-0.75-0.76-1.16-1.79-1.13-2.85c-0.03-1.06,0.37-2.09,1.11-2.85c0.75-0.76,1.79-1.18,2.86-1.14c1.04-0.03,2.03,0.4,2.72,1.17
			c0.7,0.77,1.07,1.78,1.05,2.82c0,0.2-0.01,0.39-0.04,0.59L609.42,350.31z M612.03,346.96c-1.31-0.07-2.46,0.89-2.62,2.2h5.06
			c-0.07-0.63-0.37-1.22-0.85-1.64C613.18,347.15,612.61,346.95,612.03,346.96L612.03,346.96z"/>
	</g>
</g>
</svg>
